# xmcd
#
# Track frame offsets: 
#        150
#        14155
#        29222
#        45533
#        59108
#        72769
#
# Disc length: 1162 seconds
#
# Revision: 1
# Processed by: cddbd v1.5.2PL0 Copyright (c) Steve Scherf et al.
# Submitted via: ExactAudioCopyFreeDBPlugin 1.0
#
DISCID=5b048806
DTITLE=C.P. Grun - St. Roli's Day
DYEAR=2002
DGENRE=Blues
TTITLE0=St. Roli's Day
TTITLE1=Candy Darling Blues
TTITLE2=Mabel
TTITLE3=St. Roli's Day (Guinness version)
TTITLE4=He Was A Soldier
TTITLE5=St. Roli's Day (Roli's version)
EXTD=
EXTT0=
EXTT1=
EXTT2=
EXTT3=
EXTT4=
EXTT5=
PLAYORDER=
